<?xml version="1.0" encoding="utf-8"?>
<!-- Generator: Adobe Illustrator 16.0.2, SVG Export Plug-In . SVG Version: 6.00 Build 0)  -->
<!DOCTYPE svg PUBLIC "-//W3C//DTD SVG 1.1//EN" "http://www.w3.org/Graphics/SVG/1.1/DTD/svg11.dtd">
<svg version="1.1" id="Layer_1" xmlns="http://www.w3.org/2000/svg" xmlns:xlink="http://www.w3.org/1999/xlink" x="0px" y="0px"
	 width="559.472px" height="527.973px" viewBox="0 0 559.472 527.973" enable-background="new 0 0 559.472 527.973"
	 xml:space="preserve">
<path d="M209.177,180.429H33.744c-8.334,0-15.091,6.756-15.091,15.091v259.062c0,8.334,6.756,15.091,15.091,15.091h175.433
	c8.334,0,15.091-6.757,15.091-15.091V195.52C224.268,187.185,217.511,180.429,209.177,180.429z M108.981,451.074l-0.018-0.017
	l-0.017,0.017l-28.333-28.333l10.061-10.062l18.289,18.288l43.283-43.281l10.062,10.062L108.981,451.074z M200.253,355.507H48.625
	v-14.229h151.628V355.507z M200.253,320.844H48.625v-14.229h151.628V320.844z M200.253,290.387H48.625v-14.229h151.628V290.387z
	 M200.253,256.576H48.625v-14.229h151.628V256.576z M200.253,221.914H48.625v-14.23h151.628V221.914z"/>
<g>
	<path d="M225.525,244.359c0.49,0.062,0.984,0.105,1.485,0.105h204.255c9.042,0,16.374-10.317,16.374-23.041v-48.643
		c0-0.803-0.03-1.592-0.086-2.374l-118.416,34.877l-118.461-33.671c-0.016,0.39-0.043,0.772-0.043,1.167v7.077h1.559
		c8.489,0,13.333,9.399,13.333,14.665C225.525,198.53,225.525,244.359,225.525,244.359z"/>
	<path d="M488.532,288.445h-12.11c-5.958-14.945-14.864-28.609-25.854-40.636c-5.063,5.61-11.802,8.986-19.303,8.986H227.01
		c-0.499,0-0.994-0.017-1.485-0.047v38.117c69.641-32.594,236.913-20.973,236.913,34.869c0,70.521-31.854,75.667-38.611,75.667
		c-6.754,0-55.692-3.604-94.689-3.604c-39.054,0-88.058,3.604-94.822,3.604c-1.676,0-4.895-0.318-8.79-1.865v32.784
		c7.129,4.453,15.138,8.773,24.144,13.046c0,0,78.764,32.058,158.934-0.002c38.536-18.279,59.041-37.417,68.763-64.261h11.164
		c9.609,0,17.4-7.79,17.4-17.396v-61.863C505.93,296.235,498.139,288.445,488.532,288.445z"/>
	<path d="M269.107,337.626c0-15.213-12.335-27.546-27.546-27.546c-5.983,0-11.518,1.913-16.036,5.154v44.787
		c4.518,3.24,10.051,5.153,16.036,5.153C256.772,365.175,269.107,352.842,269.107,337.626z"/>
	<circle cx="363.713" cy="337.625" r="27.548"/>
	<path d="M177.214,174.227v-25.571l151.923,43.183l211.681-62.345l-211.681-60.17l-211.683,62.345l53.167,15.112v27.189
		c-3.499,0.766-6.463,2.938-8.292,5.888h22.189C182.865,177.189,180.281,175.158,177.214,174.227z"/>
</g>
</svg>
