<?xml version="1.0" encoding="utf-8"?>
<!-- Generator: Adobe Illustrator 22.0.0, SVG Export Plug-In . SVG Version: 6.00 Build 0)  -->
<svg version="1.1" id="Layer_1" xmlns="http://www.w3.org/2000/svg" xmlns:xlink="http://www.w3.org/1999/xlink" x="0px" y="0px"
	 viewBox="0 0 1920 1080" style="enable-background:new 0 0 1920 1080;" xml:space="preserve">
<path d="M476.3,695.3c11.3,23.6,25.3,42.7,42.1,57.3s35,25.2,54.6,31.8c19.6,6.5,37.9,9.8,54.8,9.8h220.6c30.7,0,56.8-6.2,78.3-18.6
	c12.9-7.5,23.9-16,33.8-25.7c1.1,0.9,37.8,27.4,57.4,33.9c19.6,6.5,37.9,9.8,54.8,9.8h383V666h-383c-15.1,0-27.5-5.2-37.4-15.5
	s-14.8-24.3-14.8-41.8V421.2c0-16.5,4.5-30.3,13.6-41.3s22-16.5,38.6-16.5H1289c1.3-0.1,2.6-0.2,3.9-0.2c24,0,43.4,19.7,43.4,43.9
	s-19.4,43.9-43.4,43.9c-0.4,0-0.8,0-1.1,0h-218.9v128.1h220.6c30.7,0,56.8-6.2,78.3-18.6c21.5-12.4,38.9-27.8,52.2-46.2
	c13.3-18.4,23-38.5,28.9-60.2c6-21.7,3.3-96.3-8-119.9s-25.3-42.7-42.1-57.3c-16.8-14.6-35-25.2-54.6-31.8
	c-19.6-6.5-37.9-9.8-54.8-9.8h-220.6c-30.7,0-56.8,6.2-78.3,18.6c-12.9,7.5-23.9,16-33.8,25.7c-1.1-0.9-37.8-27.4-57.4-33.9
	c-19.6-6.5-37.9-9.8-54.8-9.8H465.2v127.6h383.2c15.1,0,27.5,5.2,37.4,15.5s14.8,24.3,14.8,41.8v187.5c0,16.5-4.5,30.3-13.6,41.3
	s-22,16.5-38.6,16.5H632.2c-1.3,0.1-2.6,0.2-3.9,0.2c-24,0-43.4-19.7-43.4-43.9s19.4-43.9,43.4-43.9c0.4,0,0.8,0,1.1,0h218.9V450.4
	H627.8c-30.7,0-56.8,6.2-78.3,18.6s-38.9,27.8-52.2,46.2c-13.3,18.4-23,38.5-28.9,60.2C462.3,597.1,465,671.7,476.3,695.3z"/>
<g>
	<path d="M1901,896.7h-333.8c-25.6,0-47.3-1-65-11.2s-32-23-43.1-38.3c-11-15.4-19-32-23.9-49.7c-4.9-17.8-7.3-34.5-7.3-50v-80.6
		c0-28.8,3.2-54.5,9.7-77.2c6.5-22.6,15.3-42.6,26.3-59.9c11.1-17.3,23.8-32.1,38.2-44.4c14.4-12.3,29.5-22.4,45.3-30.3
		s31.7-13.7,47.7-17.2c16.1-3.6,113.3-5.3,127.4-5.3l-316.3-299.7h177.7l315.8,299.7h0.5v126.2h-259.9c-14.4,1.3-27.6,4.6-39.6,9.9
		c-11.9,5.3-22.2,12.5-30.9,21.6c-8.7,9.1-15.4,20-20.1,32.8s-7.1,27.4-7.1,43.9v79.6c0,7.1,0.8,12.5,2.4,16.3
		c1.6,3.7,3.7,6.5,6.2,8.2c2.5,1.8,8.7,5.8,15.7,5.8H1901V896.7z"/>
</g>
<g>
	<path d="M1901,896.7h-333.8c-25.6,0-47.3-1-65-11.2s-32-23-43.1-38.3c-11-15.4-19-32-23.9-49.7c-4.9-17.8-7.3-34.5-7.3-50v-80.6
		c0-28.8,3.2-54.5,9.7-77.2c6.5-22.6,15.3-42.6,26.3-59.9c11.1-17.3,23.8-32.1,38.2-44.4c14.4-12.3,29.5-22.4,45.3-30.3
		s31.7-13.7,47.7-17.2c16.1-3.6,113.3-5.3,127.4-5.3l-316.3-299.7h177.7l315.8,299.7h0.5v126.2h-259.9c-14.4,1.3-27.6,4.6-39.6,9.9
		c-11.9,5.3-22.2,12.5-30.9,21.6c-8.7,9.1-15.4,20-20.1,32.8s-7.1,27.4-7.1,43.9v79.6c0,7.1,0.8,12.5,2.4,16.3
		c1.6,3.7,3.7,6.5,6.2,8.2c2.5,1.8,8.7,5.8,15.7,5.8H1901V896.7z"/>
</g>
<g>
	<path d="M19.5,132.8h333.8c25.6,0,47.3,1,65,11.2s32,23,43.1,38.3c11,15.4,19,32,23.9,49.7c4.9,17.8,7.3,34.5,7.3,50v80.6
		c0,28.8-3.2,54.5-9.7,77.2c-6.5,22.6-15.3,42.6-26.3,59.9c-11.1,17.3-23.8,32.1-38.2,44.4c-14.4,12.3-29.5,22.4-45.3,30.3
		c-15.8,7.9-31.7,13.7-47.7,17.2c-16.1,3.6-113.3,5.3-127.4,5.3l316.3,299.7H336.4L20.6,597H20V470.8h260
		c14.4-1.3,27.6-4.6,39.6-9.9c11.9-5.3,22.2-12.5,30.9-21.6c8.7-9.1,15.4-20,20.1-32.8s7.1-27.4,7.1-43.9V283
		c0-7.1-0.8-12.5-2.4-16.3c-1.6-3.7-3.7-6.5-6.2-8.2c-2.5-1.8-8.7-5.8-15.7-5.8H19.5V132.8z"/>
</g>
<g>
	<path d="M19.5,132.8h333.8c25.6,0,47.3,1,65,11.2s32,23,43.1,38.3c11,15.4,19,32,23.9,49.7c4.9,17.8,7.3,34.5,7.3,50v80.6
		c0,28.8-3.2,54.5-9.7,77.2c-6.5,22.6-15.3,42.6-26.3,59.9c-11.1,17.3-23.8,32.1-38.2,44.4c-14.4,12.3-29.5,22.4-45.3,30.3
		c-15.8,7.9-31.7,13.7-47.7,17.2c-16.1,3.6-113.3,5.3-127.4,5.3l316.3,299.7H336.4L20.6,597H20V470.8h260
		c14.4-1.3,27.6-4.6,39.6-9.9c11.9-5.3,22.2-12.5,30.9-21.6c8.7-9.1,15.4-20,20.1-32.8s7.1-27.4,7.1-43.9V283
		c0-7.1-0.8-12.5-2.4-16.3c-1.6-3.7-3.7-6.5-6.2-8.2c-2.5-1.8-8.7-5.8-15.7-5.8H19.5V132.8z"/>
</g>
</svg>
